<?xml version="1.0" encoding="utf-8"?>
<!DOCTYPE svg PUBLIC "-//W3C//DTD SVG 1.1//EN" "http://www.w3.org/Graphics/SVG/1.1/DTD/svg11.dtd">
<svg x="0px" y="0px" viewBox="0, 0, 340.25, 340.25" xmlSpace="preserve" id="Capa_1" enablBackground="new 0 0 340.25 340.25" xmlns="http://www.w3.org/2000/svg" xmlnsXlink="http://www.w3.org/1999/xlink" xmlnsXml="http://www.w3.org/XML/1998/namespace" version="1.1">
  <g>
    <path d="M340.25 170.12 C340.25 261.94 267.51 336.77 176.53 340.13 C174.4 340.21 172.27 340.25 170.13 340.25 C92.520004 340.25 27.040009 288.28 6.6100006 217.23001 C2.3 202.27 0 186.47 0 170.12 C0 76.16 76.17 0 170.13 0 C264.08 0 340.25 76.16 340.25 170.12 z" style="fill:#0071BC;" />
    <path d="M196.001 37.189 L199.056 47.84 C200.957 54.469 208.173 57.999 214.574 55.433 L224.85901 51.309 C235.02301 47.232998 244.677 58.173996 239.369 67.751 L233.998 77.443 C230.655 83.475 233.261 91.074 239.602 93.785 L249.791 98.14101 C259.86 102.44601 258.95 117.009 248.424 120.02701 L237.773 123.08201 C231.144 124.98301 227.614 132.199 230.18 138.6 L234.30399 148.88501 C238.37999 159.04901 227.43898 168.703 217.86198 163.395 L208.16998 158.024 C202.13799 154.681 194.53899 157.287 191.82799 163.628 L187.47198 173.817 C183.16699 183.886 168.60399 182.976 165.58598 172.45 L162.53099 161.799 C160.62999 155.17 153.41399 151.64 147.01299 154.206 L136.72798 158.32999 C126.56398 162.40599 116.90998 151.46498 122.21798 141.88799 L127.58898 132.19598 C130.93198 126.16399 128.32599 118.56499 121.984985 115.85399 L111.79598 111.497986 C101.72698 107.192986 102.63698 92.62999 113.16298 89.611984 L123.81398 86.556984 C130.44298 84.65598 133.97398 77.43999 131.40698 71.03899 L127.28298 60.753986 C123.206985 50.58999 134.14798 40.935986 143.72498 46.243988 L153.41698 51.614986 C159.44897 54.957985 167.04797 52.351986 169.75897 46.010986 L174.11497 35.821987 C178.419 25.754 192.982 26.663 196.001 37.189 z" style="fill:#F45D5D;" />
    <path d="M243.29 165.72 C241.65999 169.79001 239.51 173.69 236.81999 177.37 L232.85999 182.76 L203.13998 223.34 L176.52998 340.13 C174.39998 340.21 172.26999 340.25 170.12999 340.25 C92.51999 340.25 27.039993 288.28 6.6099854 217.23001 L162.48999 103.05001 C183.65999 87.55001 212.96999 89.80001 231.51999 108.34001 C237.16998 113.99001 241.29999 120.63001 243.87999 127.73001 C248.32 139.93 248.2 153.49 243.29 165.72 z" style="fill:#F2F2F2;" />
    <path d="M299.422 144.422 L246.817 174.728 L232.862 182.762 L236.819 177.366 C239.51 173.692 241.663 169.79 243.292 165.726 C244.826 161.90399 245.889 157.948 246.49501 153.951 L299.422 144.422 z" style="fill:#D3CC8D;" />
    <path d="M246.494 153.95 C247.84 145.149 246.938 136.119 243.883 127.735 L299.421 144.422 L246.494 153.95 z" style="fill:#EFD956;" />
    <path d="M243.292 165.725 C241.664 169.789 239.511 173.692 236.819 177.365 L232.862 182.761 L232.862 182.761 C220.327 199.869 193.727 195.809 186.868 175.74 L180.581 157.345 C175.61899 142.826 186.40999 127.734 201.75299 127.734 L243.88399 127.734 C248.325 139.927 248.204 153.492 243.292 165.725 z" style="fill:#F45D5D;" />
    <path d="M230.009 245.796 C216.47101 245.796 205.396 235.99901 203.13501 223.336 L232.86201 182.762 L246.81702 174.728 L256.42603 211.61499 C260.934 228.907 247.881 245.796 230.009 245.796 z" style="fill:#F45D5D;" />
    <circle cx="203.057" cy="150.493" r="14.13" style="fill:white;" />
    <circle cx="203.057" cy="150.493" r="8.951" style="fill:#4D4D4D;" />
  </g>
  <g />
  <g />
  <g />
  <g />
  <g />
  <g />
  <g />
  <g />
  <g />
  <g />
  <g />
  <g />
  <g />
  <g />
  <g />
</svg>